HIERARCHY
ROOT Hips
{
    OFFSET 0.000000 0.000000 0.000000
    CHANNELS 6 Xposition Yposition Zposition Zrotation Xrotation Yrotation
        JOINT Chest
        {
            OFFSET -0.000000 29.391830 -0.000000
            CHANNELS 3 Zrotation Xrotation Yrotation
            JOINT Neck
            {
                OFFSET -0.000000 21.536943 0.000000
                CHANNELS 3 Zrotation Xrotation Yrotation
                JOINT Head
                {
                    OFFSET -0.000000 10.450000 0.000000
                    CHANNELS 3 Zrotation Xrotation Yrotation
                    End Site
                    {
                        OFFSET -0.000000 16.150003 0.000000
                    }
                }
            }
            JOINT LeftCollar
            {
                OFFSET -0.000000 21.536943 0.000000
                CHANNELS 3 Zrotation Xrotation Yrotation
                JOINT LeftShoulder
                {
                    OFFSET 19.500000 -0.000000 0.000000
                    CHANNELS 3 Zrotation Xrotation Yrotation
                    JOINT LeftElbow
                    {
                        OFFSET 20.632557 0.000000 0.000000
                        CHANNELS 3 Zrotation Xrotation Yrotation
                        JOINT LeftWrist
                        {
                            OFFSET 24.683100 0.000000 0.000000
                            CHANNELS 3 Zrotation Xrotation Yrotation
                            End Site
                            {
                                OFFSET 0.000000 -14.250000 0.000000
                            }
                        }
                    }
                }
            }
            JOINT RightCollar
            {
                OFFSET -0.000000 21.536943 0.000000
                CHANNELS 3 Zrotation Xrotation Yrotation
                JOINT RightShoulder
                {
                    OFFSET -19.500000 0.000000 0.000000
                    CHANNELS 3 Zrotation Xrotation Yrotation
                    JOINT RightElbow
                    {
                        OFFSET -20.632557 0.000000 0.000000
                        CHANNELS 3 Zrotation Xrotation Yrotation
                        JOINT RightWrist
                        {
                            OFFSET -24.683100 0.000000 0.000000
                            CHANNELS 3 Zrotation Xrotation Yrotation
                            End Site
                            {
                                OFFSET -0.000000 -14.250000 0.000000
                            }
                        }
                    }
                }
            }
        }
    JOINT LeftHip
    {
        OFFSET 11.400001 0.000000 0.000000
        CHANNELS 3 Zrotation Xrotation Yrotation
        JOINT LeftKnee
        {
            OFFSET -0.000000 -38.134491 0.000000
            CHANNELS 3 Zrotation Xrotation Yrotation
            JOINT LeftAnkle
            {
                OFFSET -0.000000 -39.452507 0.000000
                CHANNELS 3 Zrotation Xrotation Yrotation
                End Site
                {
                    OFFSET -0.000000 -4.750000 16.150003
                }
            }
        }
    }
    JOINT RightHip
    {
        OFFSET -11.400001 0.000000 0.000000
        CHANNELS 3 Zrotation Xrotation Yrotation
        JOINT RightKnee
        {
            OFFSET -0.000000 -38.134491 0.000000
            CHANNELS 3 Zrotation Xrotation Yrotation
            JOINT RightAnkle
            {
                OFFSET -0.000000 -39.452507 0.000000
                CHANNELS 3 Zrotation Xrotation Yrotation
                End Site
                {
                    OFFSET -0.000000 -4.750000 16.150003
                }
            }
        }
    }
}
MOTION
Frames:    11
Frame Time:    0.010000
-23.118574    84.774620    83.906158    3.522690    1.974103    -80.601662    4.198116    7.991802    -4.814554    -12.744721    6.728018    13.605697    1.153047    -23.525314    13.133010    -15.448609    -2.314128    16.993259    -27.441923    46.380440    -46.566845    -0.141098    -0.175092    -80.419327    132.582001    1.672839    28.260265    21.745512    -1.194695    -5.719584    -22.598528    62.341614    63.081821    -24.013842    -13.336787    60.753906    -101.651680    -24.705444    -22.984781    3.342656    -20.089748    -1.644580    -0.987798    40.174480    -3.191808    -6.630615    -17.808260    8.487144    -2.006680    -21.087427    9.996800    -2.293460    39.239918    -3.985940    1.408354    -23.180182    -2.389351    
-23.015823    84.535515    84.072205    2.984304    1.783849    -81.233940    4.353252    8.268883    -5.345483    -13.276869    7.624396    14.326424    1.118071    -24.200665    13.720540    -15.732285    -2.422330    17.318735    -26.613981    46.730286    -47.055218    0.239642    -0.520809    -80.730049    133.048035    2.813544    28.066351    22.446241    -1.174659    -5.507360    -20.968744    62.084286    60.748623    -22.965805    -13.097090    61.761757    -101.062889    -25.173744    -22.096571    3.206930    -19.639980    -1.393978    -1.002342    40.479679    -3.527669    -6.230650    -18.213118    9.058022    -2.459588    -20.736397    9.629266    -2.180138    39.127441    -3.570146    1.630788    -23.259634    -1.860034    
-22.881975    84.397301    84.212753    2.709779    1.679434    -81.866928    4.523248    8.333293    -5.726871    -13.681129    8.318476    14.993106    0.948476    -24.630428    14.244514    -15.982915    -2.480390    17.616987    -25.871122    47.072586    -47.498875    0.568917    -0.768073    -81.063980    133.991333    4.044903    27.991369    23.005278    -1.150924    -5.372830    -19.889975    61.954777    59.121426    -22.201283    -12.985480    62.483395    -100.435143    -25.624035    -21.367907    3.137264    -19.432428    -1.172744    -1.112598    40.612587    -3.538224    -5.853787    -18.327379    9.444457    -2.880386    -20.746120    9.465833    -2.019243    39.073311    -2.849543    1.916402    -23.154913    -1.414499    
-22.719177    84.360245    84.325073    2.705474    1.664356    -82.503807    4.710166    8.194345    -5.931919    -13.930502    8.808861    15.580766    0.629498    -24.825333    14.682693    -16.167067    -2.568621    17.865423    -25.287289    47.475491    -47.885406    0.928677    -1.097395    -81.362640    135.118561    5.134773    27.950090    23.397169    -1.143172    -5.322256    -19.358059    61.986557    58.216034    -21.767157    -13.027582    62.891190    -99.842651    -26.042000    -20.831272    3.146581    -19.449520    -0.963726    -1.287633    40.548641    -3.278317    -5.534173    -18.176193    9.661251    -3.231712    -21.121510    9.506234    -1.821026    39.096962    -1.895807    2.238693    -22.890963    -1.069137    
-22.532589    84.418755    84.406853    2.955424    1.732030    -83.137184    4.913502    7.870101    -5.958888    -14.029492    9.119812    16.076416    0.178128    -24.822506    15.028399    -16.317743    -2.596616    18.052834    -24.836149    47.829971    -48.181526    1.172684    -1.227686    -81.662468    136.661819    6.151120    28.060181    23.627031    -1.144770    -5.350620    -19.316782    62.178726    57.961288    -21.635984    -13.190088    63.025261    -99.393768    -26.397257    -20.508617    3.238785    -19.661634    -0.754870    -1.492964    40.283932    -2.827045    -5.307937    -17.796354    9.734879    -3.488246    -21.827917    9.721205    -1.606490    39.197189    -0.787211    2.606332    -22.499956    -0.817261    
-22.328131    84.565315    84.455612    3.431585    1.869325    -83.750740    5.132875    7.379961    -5.829261    -14.014455    9.293065    16.477810    -0.359807    -24.675564    15.285539    -16.416540    -2.649714    18.176434    -24.565258    48.211456    -48.395695    1.379645    -1.376892    -81.900040    138.223267    6.840360    28.184420    23.720448    -1.153600    -5.451032    -19.716822    62.506992    58.280544    -21.795179    -13.432132    62.904659    -99.126564    -26.691774    -20.406929    3.409147    -20.035822    -0.543592    -1.696147    39.827332    -2.267014    -5.208585    -17.224178    9.696596    -3.638494    -22.805756    10.060977    -1.402057    39.354988    0.395361    3.055713    -22.014208    -0.634932    
-22.111038    84.792908    84.468056    4.101722    2.060500    -84.320480    5.368535    6.743122    -5.581929    -13.941739    9.370536    16.791023    -0.920637    -24.440035    15.468064    -16.492781    -2.645313    18.236706    -24.449713    48.527363    -48.490505    1.424871    -1.272027    -82.124718    139.980576    7.314837    28.403957    23.708517    -1.152445    -5.614372    -20.470261    62.924999    59.053356    -22.134716    -13.716678    62.593216    -99.144310    -26.891552    -20.509508    3.646096    -20.540941    -0.338714    -1.870825    39.192951    -1.666684    -5.259291    -16.487211    9.575524    -3.683981    -23.983599    10.465720    -1.233945    39.539116    1.571116    3.615554    -21.461205    -0.495555    
-21.885818    85.094658    84.440460    4.931830    2.289640    -84.817131    5.619813    5.979892    -5.266191    -13.871194    9.385421    17.026375    -1.437857    -24.162827    15.592841    -16.509279    -2.680201    18.237614    -24.560541    48.865334    -48.460541    1.354674    -1.145283    -82.282295    141.596558    7.380345    28.564390    23.611004    -1.182437    -5.831490    -21.559031    63.420639    60.253712    -22.654903    -14.032406    62.072655    -99.356400    -27.047268    -20.777401    3.932775    -21.148827    -0.158494    -1.999204    38.399021    -1.069504    -5.461123    -15.605357    9.393707    -3.637718    -25.285877    10.875788    -1.121940    39.714142    2.662115    4.280416    -20.863024    -0.382481    
-21.656921    85.461784    84.369553    5.884645    2.542606    -85.209877    5.884098    5.112741    -4.933689    -13.853850    9.367118    17.195877    -1.856833    -23.883150    15.675012    -16.487043    -2.672893    18.182356    -24.890064    49.122417    -48.244858    1.070326    -0.715565    -82.444092    143.242905    7.228216    28.710747    23.447161    -1.214051    -6.092321    -22.844696    63.952473    61.713161    -23.233580    -14.291749    61.464363    -99.833832    -27.115486    -21.209019    4.250452    -21.832638    -0.025271    -2.073728    37.468998    -0.495193    -5.787483    -14.594240    9.164691    -3.520699    -26.637524    11.239333    -1.075951    39.849503    3.598669    5.002632    -20.237152    -0.294821    
-21.428919    85.882332    84.253395    6.920128    2.808577    -85.470856    6.156277    4.168208    -4.633003    -13.924160    9.341186    17.310980    -2.142317    -23.632298    15.727007    -16.425678    -2.623384    18.077158    -25.446814    49.275269    -47.862381    0.572940    -0.093173    -82.594666    144.770325    6.826490    28.744249    23.226229    -1.258843    -6.383827    -24.285269    64.501656    63.387848    -23.842648    -14.509949    60.772438    -100.498802    -27.124372    -21.760960    4.581639    -22.566957    0.041650    -2.094029    36.431877    0.044058    -6.196673    -13.472672    8.897824    -3.357651    -27.969187    11.515962    -1.096463    39.925335    4.325516    5.696194    -19.595800    -0.246116    
-21.206194    86.341202    84.091881    7.997691    3.080558    -85.578926    6.427307    3.179286    -4.405419    -14.094922    9.319518    17.383928    -2.280892    -23.426678    15.759528    -16.303768    -2.604600    17.934963    -26.252754    49.367111    -47.300247    -0.072734    0.611107    -82.718079    146.027618    6.187925    28.610500    22.956347    -1.293974    -6.685859    -25.782089    65.045876    65.166092    -24.418423    -14.657764    60.069447    -101.331268    -27.061346    -22.410881    4.912294    -23.328625    0.030675    -2.063130    35.320229    0.528374    -6.654297    -12.267007    8.601703    -3.173132    -29.222740    11.678257    -1.176319    39.935619    4.806158    6.254620    -18.944941    -0.259074    
